#!OML:ASF I:\salsa\salsa 7_09\Patient 1\Session 1\dancermale.ASF
:FULLY-SPECIFIED
:DEGREES
1430
root -2.46754 16.9081 5.2387 -341.757 111.825 -350.475
lowerback -8.46911 3.09444 3.58348
upperback -3.18793 3.96075 -0.880306
thorax 1.73467 2.01163 -2.51959
lowerneck -3.80946 -10.8428 -0.0876123
upperneck 17.3703 -14.5234 0.723569
head 5.95618 -6.84219 -0.648316
rclavicle 3.91233e-014 -5.56597e-015
rhumerus 11.5353 1.72718 -101.583
rradius 98.2484
rwrist 26.4307
rhand 163.858 154.239
rfingers 7.12502
rthumb 10.0631 -55.5007
lclavicle 3.91233e-014 -5.56597e-015
lhumerus -37.6689 -12.0072 89.9116
lradius 83.1443
lwrist 54.7851
lhand -10.3454 47.4717
lfingers 7.12502
lthumb 15.651 436.859
rfemur -1.79471 4.13673 19.4781
rtibia 30.1453
rfoot -16.5799 -12.1952
rtoes -11.1175
lfemur -28.9922 -2.61672 -15.1089
ltibia 41.0279
lfoot -24.8107 11.3525
ltoes -6.27766
1431
root -2.43229 16.9015 5.16129 -342.592 111.757 -351.118
lowerback -8.54126 3.10953 3.64192
upperback -3.13762 3.9729 -0.972272
thorax 1.83766 2.01888 -2.64016
lowerneck -3.77694 -10.9068 -0.013199
upperneck 17.389 -14.6041 0.646789
head 5.94555 -6.88167 -0.68522
rclavicle -5.35352e-014 -9.93923e-015
rhumerus 11.6705 1.39275 -101.683
rradius 98.0077
rwrist 27.5925
rhand 164.77 154.32
rfingers 7.12502
rthumb 10.9433 -55.3748
lclavicle -5.35352e-014 -9.93923e-015
lhumerus -37.1537 -12.147 89.9838
lradius 84.2674
lwrist 55.3007
lhand -11.121 47.1229
lfingers 7.12502
lthumb 14.9039 436.567
rfemur -1.876 4.3252 19.0948
rtibia 31.2131
rfoot -16.5135 -12.2164
rtoes -11.0773
lfemur -28.4322 -2.61211 -15.6477
ltibia 40.8935
lfoot -24.9959 11.187
ltoes -6.78758
1432
root -2.39412 16.8993 5.0788 -343.674 111.725 -351.942
lowerback -8.48102 3.06933 3.58994
upperback -3.08583 3.92388 -1.03443
thorax 1.85565 1.99424 -2.68226
lowerneck -3.77201 -10.9173 -0.0160364
upperneck 17.4384 -14.6062 0.570969
head 5.95456 -6.88652 -0.708775
rclavicle -1.14239e-014 -1.03368e-014
rhumerus 11.3227 1.24499 -101.627
rradius 97.039
rwrist 28.4608
rhand 164.259 155.166
rfingers 7.12502
rthumb 10.45 -54.5543
lclavicle -1.14239e-014 -1.03368e-014
lhumerus -36.6697 -12.3464 90.1068
lradius 85.481
lwrist 56.1047
lhand -10.7055 47.6258
lfingers 7.12502
lthumb 15.3042 437.04
rfemur -1.95728 4.52811 18.7091
rtibia 32.5614
rfoot -16.3873 -12.1458
rtoes -11.5899
lfemur -27.6998 -2.58662 -16.2727
ltibia 40.6612
lfoot -25.1468 10.7332
ltoes -6.30891
1433
root -2.35026 16.9007 4.98325 -345.194 111.786 -353.24
lowerback -8.45601 2.97658 3.3621
upperback -3.04775 3.8185 -1.05787
thorax 1.86118 1.94203 -2.59083
lowerneck -3.71953 -10.9262 -0.12616
upperneck 17.4556 -14.5877 0.452555
head 5.9499 -6.89295 -0.724403
rclavicle 3.37313e-015 -1.19271e-014
rhumerus 11.0659 1.12326 -101.395
rradius 96.2394
rwrist 29.3736
rhand 163.791 155.739
rfingers 7.12502
rthumb 9.99814 -54.0033
lclavicle 3.37313e-015 -1.19271e-014
lhumerus -36.256 -12.694 90.473
lradius 86.7185
lwrist 56.9383
lhand -10.911 48.0743
lfingers 7.12502
lthumb 15.1063 437.503
rfemur -2.15901 4.63513 18.1063
rtibia 34.1406
rfoot -15.7434 -12.4518
rtoes -12.6971
lfemur -26.8761 -2.71997 -17.1266
ltibia 40.3034
lfoot -25.1613 10.3016
ltoes -5.52771
1434
root -2.30452 16.9016 4.87963 -346.445 111.716 -354.56
lowerback -8.7 2.96182 3.10961
upperback -3.09175 3.81727 -1.09264
thorax 1.93678 1.94419 -2.47451
lowerneck -3.73256 -10.9475 -0.167641
upperneck 17.5217 -14.584 0.271376
head 5.96173 -6.90473 -0.775079
rclavicle -2.06239e-014 -1.07344e-014
rhumerus 10.8909 0.901279 -100.97
rradius 95.6361
rwrist 30.2508
rhand 163.617 156.241
rfingers 7.12502
rthumb 9.83026 -53.5094
lclavicle -2.06239e-014 -1.07344e-014
lhumerus -35.8993 -13.3564 91.0149
lradius 88.0199
lwrist 57.7963
lhand -10.9029 48.3213
lfingers 7.12502
lthumb 15.1141 437.749
rfemur -2.97077 4.84608 17.3986
rtibia 36.1374
rfoot -14.4987 -12.8227
rtoes -11.8772
lfemur -26.2774 -2.71799 -18.03
ltibia 39.7966
lfoot -25.1635 9.92435
ltoes -5.60449
1435
root -2.25903 16.9076 4.77224 -347.665 111.527 -355.848
lowerback -8.87366 3.0124 2.91863
upperback -3.13632 3.90176 -1.18161
thorax 1.98603 1.98825 -2.4425
lowerneck -3.77731 -10.9798 -0.0253474
upperneck 17.5349 -14.593 -0.0415011
head 5.93798 -6.92358 -0.891596
rclavicle -1.19147e-014 3.18055e-015
rhumerus 10.7163 0.549876 -100.475
rradius 95.1358
rwrist 31.0012
rhand 163.725 156.901
rfingers 7.12502
rthumb 9.93494 -52.8446
lclavicle -1.19147e-014 3.18055e-015
lhumerus -35.626 -14.4261 91.5904
lradius 89.4592
lwrist 58.6797
lhand -10.2668 48.2757
lfingers 7.12502
lthumb 15.7267 437.657
rfemur -4.14928 5.09513 16.6372
rtibia 38.652
rfoot -12.9568 -12.7115
rtoes -8.42493
lfemur -25.5693 -2.62694 -18.939
ltibia 39.0801
lfoot -25.1962 9.45988
ltoes -6.47157
1436
root -2.21696 16.9237 4.65691 -349.524 111.722 -357.565
lowerback -8.78325 2.92649 2.70602
upperback -3.08389 3.80873 -1.30219
thorax 1.97959 1.94167 -2.46174
lowerneck -3.81719 -10.9898 -0.255323
upperneck 17.6242 -14.5993 0.0437936
head 5.99711 -6.93054 -0.840079
rclavicle 3.33958e-014 -4.96962e-015
rhumerus 10.5751 0.250914 -99.8354
rradius 94.7088
rwrist 31.5128
rhand 163.995 157.3
rfingers 7.12502
rthumb 10.1955 -52.4328
lclavicle 3.33958e-014 -4.96962e-015
lhumerus -35.3545 -15.741 92.2636
lradius 90.951
lwrist 59.4363
lhand -10.3555 49.1695
lfingers 7.12502
lthumb 15.6413 438.557
rfemur -5.36047 4.98902 15.6624
rtibia 41.6072
rfoot -11.1001 -12.5727
rtoes -3.07614
lfemur -24.6276 -3.18818 -20.0206
ltibia 38.3128
lfoot -25.1231 9.15043
ltoes -7.4289
1437
root -2.17661 16.9417 4.55019 -350.957 111.82 -358.961
lowerback -8.74089 2.85039 2.4478
upperback -3.0152 3.72816 -1.32793
thorax 2.00839 1.90178 -2.35295
lowerneck -4.00589 -10.9548 -0.617577
upperneck 17.7045 -14.555 0.237003
head 6.09689 -6.91365 -0.743823
rclavicle -4.22914e-014 -4.37326e-015
rhumerus 10.5851 0.154599 -99.0127
rradius 94.2644
rwrist 31.8728
rhand 164.24 157.597
rfingers 7.12502
rthumb 10.4314 -52.1246
lclavicle -4.22914e-014 -4.37326e-015
lhumerus -35.0532 -17.2051 93.053
lradius 92.5071
lwrist 60.175
lhand -11.4054 49.3815
lfingers 7.12502
lthumb 14.6299 438.845
rfemur -7.147 5.05462 14.9818
rtibia 45.2183
rfoot -8.74258 -12.7546
rtoes 3.88007
lfemur -23.7953 -3.43081 -20.9436
ltibia 37.5451
lfoot -25.1308 8.72825
ltoes -7.84525
1438
root -2.13563 16.9614 4.44753 -352.365 111.788 -360.268
lowerback -8.55826 2.78721 2.16927
upperback -2.90556 3.66479 -1.31433
thorax 1.99998 1.86903 -2.19591
lowerneck -4.22241 -10.9288 -0.910378
upperneck 17.6152 -14.5102 0.297676
head 6.13178 -6.91001 -0.692384
rclavicle 2.81218e-014 1.59028e-015
rhumerus 10.7246 0.232484 -98.0275
rradius 93.7308
rwrist 32.1603
rhand 164.48 158.027
rfingers 7.12502
rthumb 10.6635 -51.6821
lclavicle 2.81218e-014 1.59028e-015
lhumerus -34.7795 -18.8312 93.9116
lradius 94.1252
lwrist 60.9958
lhand -11.8763 49.8872
lfingers 7.12502
lthumb 14.1762 439.383
rfemur -9.31874 5.26258 14.4094
rtibia 49.3852
rfoot -5.9899 -13.1158
rtoes 10.5056
lfemur -22.8272 -3.45132 -21.8277
ltibia 36.6765
lfoot -25.1688 8.28864
ltoes -7.54939
1439
root -2.09433 16.9889 4.35312 -354.295 111.79 -361.773
lowerback -7.96192 2.69915 1.76452
upperback -2.70658 3.57763 -1.31849
thorax 1.84831 1.82109 -2.00648
lowerneck -4.30166 -10.9296 -0.868948
upperneck 17.2767 -14.4799 0.034653
head 6.01385 -6.92731 -0.76777
rclavicle -2.85411e-014 1.39149e-015
rhumerus 10.8546 0.380651 -96.8774
rradius 93.3079
rwrist 32.3202
rhand 164.806 158.451
rfingers 7.12502
rthumb 10.9777 -51.2417
lclavicle -2.85411e-014 1.39149e-015
lhumerus -34.4755 -20.5338 94.7436
lradius 95.6965
lwrist 61.4908
lhand -12.7756 49.8221
lfingers 7.12502
lthumb 13.3095 439.377
rfemur -11.3797 5.59804 13.9094
rtibia 53.7791
rfoot -3.25843 -13.7086
rtoes 15.4351
lfemur -21.3974 -3.29233 -22.7737
ltibia 35.6273
lfoot -25.1379 7.73101
ltoes -6.92037
1440
root -2.06304 17.0044 4.26673 -355.805 111.859 -363.28
lowerback -7.6508 2.58002 1.33115
upperback -2.6291 3.45283 -1.37429
thorax 1.72892 1.75715 -1.84666
lowerneck -4.46447 -10.8783 -1.16607
upperneck 17.2077 -14.4336 0.331015
head 6.06463 -6.90295 -0.642751
rclavicle -8.89422e-014 -4.47266e-015
rhumerus 10.9911 0.580363 -95.689
rradius 93.1564
rwrist 32.435
rhand 165.405 158.774
rfingers 7.12502
rthumb 11.5553 -50.8877
lclavicle -8.89422e-014 -4.47266e-015
lhumerus -34.1669 -22.2092 95.4205
lradius 97.2382
lwrist 61.2432
lhand -10.7398 50.8663
lfingers 7.12502
lthumb 15.2712 440.283
rfemur -14.2053 5.9547 13.5147
rtibia 58.4624
rfoot -0.996785 -14.4898
rtoes 19.249
lfemur -20.5696 -2.88199 -23.6727
ltibia 34.7404
lfoot -25.0559 6.97908
ltoes -6.18774
1441
root -2.02471 17.0213 4.18806 -357.525 111.804 -364.762
lowerback -7.11532 2.5123 0.808868
upperback -2.4945 3.39759 -1.44144
thorax 1.54359 1.72686 -1.65036
lowerneck -4.37167 -10.8371 -1.29901
upperneck 16.8575 -14.3954 0.520881
head 5.96233 -6.89119 -0.54724
rclavicle 3.03473e-014 1.50579e-014
rhumerus 11.0318 0.812032 -94.4255
rradius 93.1654
rwrist 32.3246
rhand 165.932 158.717
rfingers 7.12502
rthumb 12.0638 -50.915
lclavicle 3.03473e-014 1.50579e-014
lhumerus -34.2342 -24.2404 96.309
lradius 99.0536
lwrist 61.9767
lhand -7.16439 54.2472
lfingers 7.12502
lthumb 18.7127 443.367
rfemur -16.6947 6.56376 13.2984
rtibia 62.7782
rfoot 0.338373 -15.0069
rtoes 21.892
lfemur -19.3609 -2.23994 -24.5295
ltibia 33.6816
lfoot -24.9223 6.24905
ltoes -5.49907
1442
root -1.98446 17.0322 4.10484 -358.827 112.054 -366.046
lowerback -6.89018 2.4124 0.432559
upperback -2.37877 3.28984 -1.55081
thorax 1.51993 1.67246 -1.5689
lowerneck -4.22467 -10.8779 -1.14145
upperneck 16.365 -14.4544 0.443702
head 5.76499 -6.93464 -0.570244
rclavicle 2.29154e-014 -5.96354e-015
rhumerus 10.9859 0.966853 -92.989
rradius 93.1375
rwrist 32.0794
rhand 165.744 158.721
rfingers 7.12502
rthumb 11.8826 -50.922
lclavicle 2.29154e-014 -5.96354e-015
lhumerus -34.4419 -26.6372 97.3363
lradius 100.984
lwrist 63.3259
lhand -10.8268 50.4506
lfingers 7.12502
lthumb 15.1873 439.873
rfemur -19.3045 6.80099 13.1448
rtibia 66.5715
rfoot 0.54544 -14.6329
rtoes 22.853
lfemur -18.5018 -1.95672 -25.3351
ltibia 32.7786
lfoot -24.8084 5.65919
ltoes -5.10835
1443
root -1.97189 17.0395 3.9942 -359.396 113.017 -366.961
lowerback -6.8754 2.13135 0.734064
upperback -2.33619 2.90298 -1.79327
thorax 1.57028 1.47997 -2.01901
lowerneck -4.276 -10.8256 -1.42087
upperneck 16.1384 -14.4184 0.831139
head 5.75258 -6.91302 -0.409579
rclavicle 6.11395e-014 -7.03201e-015
rhumerus 11.0571 0.992084 -91.5068
rradius 93.0737
rwrist 31.9707
rhand 165.551 159.049
rfingers 7.12502
rthumb 11.6965 -50.6045
lclavicle 6.11395e-014 -7.03201e-015
lhumerus -34.5922 -29.2934 98.3202
lradius 102.969
lwrist 65.0316
lhand -10.85 50.4296
lfingers 7.12502
lthumb 15.165 439.854
rfemur -22.4598 5.9669 12.8471
rtibia 70.0232
rfoot 0.0418528 -12.8993
rtoes 22.0135
lfemur -18.4562 -2.65766 -26.2395
ltibia 32.4188
lfoot -24.699 5.40249
ltoes -4.831
